<svg width="32" height="27" viewBox="0 0 32 27" fill="none" xmlns="http://www.w3.org/2000/svg">
<path fill-rule="evenodd" clip-rule="evenodd" d="M31.3577 15.54V20.8971C31.3577 23.2185 25.7613 26.2542 18.8578 26.2542C11.9544 26.2542 6.35799 23.2185 6.35799 20.8971V16.4329" fill="#4397F4"/>
<path d="M31.3577 15.54V20.8971C31.3577 23.2185 25.7613 26.2542 18.8578 26.2542C11.9544 26.2542 6.35799 23.2185 6.35799 20.8971V16.4329" stroke="#4397F4" stroke-linecap="round" stroke-linejoin="round"/>
<path fill-rule="evenodd" clip-rule="evenodd" d="M6.884 16.8959C8.42863 18.9459 13.2054 20.8691 18.8589 20.8691C25.7623 20.8691 31.3587 18.0012 31.3587 15.537C31.3587 14.1531 29.5962 12.637 26.8302 11.5728" fill="#4397F4"/>
<path d="M6.884 16.8959C8.42863 18.9459 13.2054 20.8691 18.8589 20.8691C25.7623 20.8691 31.3587 18.0012 31.3587 15.537C31.3587 14.1531 29.5962 12.637 26.8302 11.5728" stroke="white" stroke-linecap="round" stroke-linejoin="round"/>
<path fill-rule="evenodd" clip-rule="evenodd" d="M25.9997 6.61133V11.9684C25.9997 14.2898 20.4033 17.3255 13.4998 17.3255C6.59636 17.3255 1 14.2898 1 11.9684V6.61133" fill="#4397F4"/>
<path d="M25.9997 6.61133V11.9684C25.9997 14.2898 20.4033 17.3255 13.4998 17.3255C6.59636 17.3255 1 14.2898 1 11.9684V6.61133" stroke="#4397F4" stroke-linecap="round" stroke-linejoin="round"/>
<path fill-rule="evenodd" clip-rule="evenodd" d="M13.4998 11.9405C20.4033 11.9405 25.9997 9.07264 25.9997 6.60839C25.9997 4.14235 20.4033 1.25488 13.4998 1.25488C6.59636 1.25488 1 4.14235 1 6.60839C1 9.07264 6.59636 11.9405 13.4998 11.9405Z" fill="#4397F4" stroke="white" stroke-linecap="round" stroke-linejoin="round"/>
</svg>
