<svg width="34" height="29" viewBox="0 0 34 29" fill="none" xmlns="http://www.w3.org/2000/svg">
<path d="M32.205 24.2411H21.001V6.49316H29.4841C30.2043 6.49316 30.7645 6.9772 31.0046 7.62258L33.8056 16.1738V22.6276C33.8056 23.515 33.0854 24.2411 32.205 24.2411Z" fill="#2E7FD9"/>
<path d="M21.0009 24.2416H1.79394C0.913622 24.2416 0.193359 23.5156 0.193359 22.6282V2.46012C0.193359 1.57273 0.913622 0.84668 1.79394 0.84668H19.4004C20.2807 0.84668 21.0009 1.57273 21.0009 2.46012V24.2416Z" fill="#4397F4"/>
<path d="M27.4018 28.2747C29.6117 28.2747 31.4032 26.4688 31.4032 24.2411C31.4032 22.0134 29.6117 20.2075 27.4018 20.2075C25.1918 20.2075 23.4003 22.0134 23.4003 24.2411C23.4003 26.4688 25.1918 28.2747 27.4018 28.2747Z" fill="#37474F"/>
<path d="M8.19629 28.2752C10.4062 28.2752 12.1977 26.4693 12.1977 24.2416C12.1977 22.0139 10.4062 20.208 8.19629 20.208C5.98635 20.208 4.19483 22.0139 4.19483 24.2416C4.19483 26.4693 5.98635 28.2752 8.19629 28.2752Z" fill="#37474F"/>
<path d="M27.4046 25.8553C28.2885 25.8553 29.0051 25.1329 29.0051 24.2419C29.0051 23.3508 28.2885 22.6284 27.4046 22.6284C26.5206 22.6284 25.804 23.3508 25.804 24.2419C25.804 25.1329 26.5206 25.8553 27.4046 25.8553Z" fill="white"/>
<path d="M8.19525 25.8558C9.07923 25.8558 9.79583 25.1334 9.79583 24.2424C9.79583 23.3513 9.07923 22.6289 8.19525 22.6289C7.31127 22.6289 6.59467 23.3513 6.59467 24.2424C6.59467 25.1334 7.31127 25.8558 8.19525 25.8558Z" fill="white"/>
<path d="M30.6031 15.3674H25.001C24.5208 15.3674 24.2007 15.0447 24.2007 14.5607V8.91366C24.2007 8.42962 24.5208 8.10693 25.001 8.10693H29.2426C29.5627 8.10693 29.8828 8.34895 29.9628 8.67164L31.3233 12.8666C31.3233 12.9473 31.4034 13.0279 31.4034 13.1086V14.5607C31.4034 15.0447 31.0832 15.3674 30.6031 15.3674Z" fill="white"/>
<path d="M15.2389 6.33252L8.91655 12.7056L5.95547 9.64008L4.19483 11.4149L8.91655 16.1745L16.9995 8.02664L15.2389 6.33252Z" fill="white"/>
</svg>
