<svg width="28" height="22" viewBox="0 0 28 22" fill="none" xmlns="http://www.w3.org/2000/svg">
<path d="M6.7778 21.0004C8.37329 21.0004 9.66669 19.7212 9.66669 18.1433C9.66669 16.5653 8.37329 15.2861 6.7778 15.2861C5.18232 15.2861 3.88892 16.5653 3.88892 18.1433C3.88892 19.7212 5.18232 21.0004 6.7778 21.0004Z" stroke="#F2A000" stroke-width="2" stroke-linecap="round" stroke-linejoin="round"/>
<path d="M21.2221 21.0004C22.8176 21.0004 24.111 19.7212 24.111 18.1433C24.111 16.5653 22.8176 15.2861 21.2221 15.2861C19.6267 15.2861 18.3333 16.5653 18.3333 18.1433C18.3333 19.7212 19.6267 21.0004 21.2221 21.0004Z" stroke="#F2A000" stroke-width="2" stroke-linecap="round" stroke-linejoin="round"/>
<path d="M11.1111 6.71429L8.22222 9.57143M3.88889 18.1429H1V2.42857C1 2.04969 1.15218 1.68633 1.42307 1.41842C1.69395 1.15051 2.06135 1 2.44444 1H15.4444V9.57143H8.22222L11.1111 12.4286L3.88889 18.1429Z" stroke="#F2A000" stroke-width="2" stroke-linecap="round" stroke-linejoin="round"/>
<path d="M9.66675 18.1426H18.3334" stroke="#F2A000" stroke-width="2" stroke-linecap="round" stroke-linejoin="round"/>
<path d="M15.4443 2.42871H22.6666L26.9999 9.57157V18.143H24.111" stroke="#F2A000" stroke-width="2" stroke-linecap="round" stroke-linejoin="round"/>
</svg>
