<svg width="27" height="21" viewBox="0 0 27 21" fill="none" xmlns="http://www.w3.org/2000/svg">
<path d="M25.7144 17.9115H16.7144V4.32324H23.5286C24.1072 4.32324 24.5572 4.69383 24.7501 5.18795L27.0001 11.735V16.6762C27.0001 17.3556 26.4215 17.9115 25.7144 17.9115Z" fill="#2E7FD9"/>
<path d="M16.7143 17.9118H1.28571C0.578571 17.9118 0 17.3559 0 16.6765V1.23529C0 0.555882 0.578571 0 1.28571 0H15.4286C16.1357 0 16.7143 0.555882 16.7143 1.23529V17.9118Z" fill="#4397F4"/>
<path d="M21.8566 20.9997C23.6318 20.9997 25.0709 19.6171 25.0709 17.9115C25.0709 16.2059 23.6318 14.8232 21.8566 14.8232C20.0814 14.8232 18.6423 16.2059 18.6423 17.9115C18.6423 19.6171 20.0814 20.9997 21.8566 20.9997Z" fill="#37474F"/>
<path d="M6.42864 20.9997C8.20384 20.9997 9.64293 19.6171 9.64293 17.9115C9.64293 16.2059 8.20384 14.8232 6.42864 14.8232C4.65344 14.8232 3.21436 16.2059 3.21436 17.9115C3.21436 19.6171 4.65344 20.9997 6.42864 20.9997Z" fill="#37474F"/>
<path d="M21.8575 19.1473C22.5676 19.1473 23.1432 18.5943 23.1432 17.9121C23.1432 17.2298 22.5676 16.6768 21.8575 16.6768C21.1474 16.6768 20.5718 17.2298 20.5718 17.9121C20.5718 18.5943 21.1474 19.1473 21.8575 19.1473Z" fill="white"/>
<path d="M6.42854 19.1473C7.13862 19.1473 7.71425 18.5943 7.71425 17.9121C7.71425 17.2298 7.13862 16.6768 6.42854 16.6768C5.71846 16.6768 5.14282 17.2298 5.14282 17.9121C5.14282 18.5943 5.71846 19.1473 6.42854 19.1473Z" fill="white"/>
<path d="M24.4285 11.1174H19.9285C19.5428 11.1174 19.2856 10.8704 19.2856 10.4998V6.17624C19.2856 5.80565 19.5428 5.55859 19.9285 5.55859H23.3356C23.5928 5.55859 23.8499 5.74389 23.9142 5.99095L25.0071 9.20271C25.0071 9.26448 25.0714 9.32624 25.0714 9.38801V10.4998C25.0714 10.8704 24.8142 11.1174 24.4285 11.1174Z" fill="white"/>
<path d="M12.0858 4.2002L7.00721 9.07961L4.62864 6.73255L3.21436 8.09137L7.00721 11.7355L13.5001 5.49725L12.0858 4.2002Z" fill="#DCEDC8"/>
</svg>
