<svg width="25" height="27" viewBox="0 0 25 27" fill="none" xmlns="http://www.w3.org/2000/svg">
<path d="M16.3997 26.9995V23.9685L18.1221 24.298C20.0433 24.6933 21.8321 23.3096 21.9646 21.3987L22.362 17.1157L24.2833 16.325C24.9457 16.0614 25.2107 15.2707 24.8132 14.6118L22.362 10.5264C21.9645 5.51862 19.1159 0.642578 11.7623 0.642578C4.20992 0.642578 0.5 6.17754 0.5 11.8443C0.5 14.2823 1.36123 16.3909 2.6862 18.17C3.87868 19.8173 4.47492 21.794 4.47492 23.7708V26.9337H16.3997V26.9995Z" fill="#FFB74D"/>
<path d="M16.3996 26.9994V23.9684L11.7622 23.0459V26.9994H16.3996Z" fill="#FF9800"/>
<path d="M19.3809 13.8215C19.9298 13.8215 20.3747 13.379 20.3747 12.8331C20.3747 12.2872 19.9298 11.8447 19.3809 11.8447C18.8321 11.8447 18.3872 12.2872 18.3872 12.8331C18.3872 13.379 18.8321 13.8215 19.3809 13.8215Z" fill="#784719"/>
<path d="M11.3648 0.642578C5.33615 0.642578 0.5 5.45272 0.5 11.4489C0.5 18.763 4.47492 18.9607 4.47492 23.7049L6.19738 23.1119C7.5886 22.6506 8.78107 21.5964 9.31106 20.2126L11.166 15.7319L15.0747 13.8211V9.86752C15.0747 9.86752 19.7121 7.3636 19.7121 3.0806C17.7246 1.43329 14.2135 0.642578 11.3648 0.642578Z" fill="#FF5722"/>
<path d="M11.0997 0.0498047C10.7023 0.0498047 10.4373 0.313374 10.4373 0.708729V9.86777C10.4373 10.2631 10.7023 10.5267 11.0997 10.5267C11.4972 10.5267 11.7622 10.2631 11.7622 9.86777V0.708729C11.7622 0.313374 11.4972 0.0498047 11.0997 0.0498047Z" fill="#546E7A"/>
<path d="M21.6341 19.6858C16.4004 19.6858 14.8105 16.4571 14.7442 16.3253C14.6117 15.9958 14.2142 15.864 13.883 15.9958C13.5517 16.1276 13.4193 16.523 13.5517 16.8524C13.618 17.0501 15.5392 21.0036 21.6341 21.0036C22.0316 21.0036 22.2966 20.7401 22.2966 20.3447C22.2966 19.9494 21.9653 19.6858 21.6341 19.6858Z" fill="#546E7A"/>
<path d="M21.6995 21.7285C22.4312 21.7285 23.0245 21.1384 23.0245 20.4106C23.0245 19.6828 22.4312 19.0928 21.6995 19.0928C20.9677 19.0928 20.3745 19.6828 20.3745 20.4106C20.3745 21.1384 20.9677 21.7285 21.6995 21.7285Z" fill="#37474F"/>
<path d="M11.0998 18.4339C13.661 18.4339 15.7372 16.3688 15.7372 13.8215C15.7372 11.2741 13.661 9.20898 11.0998 9.20898C8.53864 9.20898 6.4624 11.2741 6.4624 13.8215C6.4624 16.3688 8.53864 18.4339 11.0998 18.4339Z" fill="#37474F"/>
<path d="M11.0999 16.4569C12.5634 16.4569 13.7498 15.2769 13.7498 13.8212C13.7498 12.3656 12.5634 11.1855 11.0999 11.1855C9.63637 11.1855 8.44995 12.3656 8.44995 13.8212C8.44995 15.2769 9.63637 16.4569 11.0999 16.4569Z" fill="#546E7A"/>
</svg>
