<svg width="22" height="27" viewBox="0 0 22 27" fill="none" xmlns="http://www.w3.org/2000/svg">
<path d="M11 27L5.33867 23.8246C3.72473 22.9214 2.37506 21.5729 1.43452 19.9238C0.493973 18.2747 -0.00193697 16.3874 5.68569e-06 14.4643V1.92857C0.000491039 1.41724 0.193801 0.926996 0.537513 0.565429C0.881224 0.203863 1.34726 0.000510567 1.83334 0H20.1667C20.6527 0.000510567 21.1188 0.203863 21.4625 0.565429C21.8062 0.926996 21.9995 1.41724 22 1.92857V14.4643C22.0019 16.3874 21.506 18.2747 20.5655 19.9238C19.6249 21.5729 18.2753 22.9214 16.6613 23.8246L11 27ZM1.83334 1.92857V14.4643C1.83182 16.0378 2.23768 17.5821 3.00737 18.9313C3.77706 20.2805 4.88151 21.3838 6.20217 22.1226L11 24.814L15.7978 22.1236C17.1186 21.3847 18.2232 20.2813 18.9929 18.9318C19.7626 17.5824 20.1683 16.038 20.1667 14.4643V1.92857H1.83334Z" fill="#1FBC4B"/>
<path d="M11 22.446V3.85742H18.3333V14.2765C18.3333 15.4988 18.0177 16.6981 17.4204 17.7464C16.8231 18.7948 15.9663 19.6529 14.9417 20.2291L11 22.446Z" fill="#1FBC4B"/>
<path d="M6.16793 6.10032L8.41585 8.3804C8.41585 8.3804 8.41585 9.06181 7.73624 9.74321C7.05664 10.4246 6.37704 10.4246 6.37704 10.4246L4.10298 8.14453C3.78932 9.42872 4.20753 10.975 5.14852 11.9185C6.56001 13.3337 8.36357 12.0757 8.72951 12.4426C10.7945 14.4344 12.3628 16.4786 12.4412 16.531C13.0424 17.1338 14.0095 17.16 14.5846 16.5835C15.1596 16.0069 15.1335 15.0372 14.5323 14.4344C14.4539 14.3558 12.3366 12.6785 10.3762 10.7129C10.0103 10.346 11.3434 8.61627 9.90575 7.14863C8.96476 6.23136 7.44872 5.78582 6.16793 6.10032ZM14.0356 15.3517C14.0356 15.7186 13.7481 16.0069 13.3822 16.0069C12.9901 16.0069 12.7026 15.7186 12.7026 15.3517C12.7026 14.9848 12.9901 14.6965 13.356 14.6965C13.722 14.6965 14.0356 14.9848 14.0356 15.3517Z" fill="black"/>
</svg>
